<mxfile host="app.diagrams.net" modified="2021-06-27T13:26:27.928Z" agent="5.0 (Windows)" etag="CZi3z9kEEQfZ3zi2kstz" version="14.8.0" type="github">
  <diagram id="0W6Qc_67fqcdbap8SxTc" name="Page-1">
    <mxGraphModel dx="1038" dy="564" grid="1" gridSize="10" guides="1" tooltips="1" connect="1" arrows="1" fold="1" page="1" pageScale="1" pageWidth="1169" pageHeight="1654" math="0" shadow="0">
      <root>
        <mxCell id="0" />
        <mxCell id="1" parent="0" />
        <mxCell id="jdy4lV-E1GT7_JCYyYh7-1" value="" style="shape=or;whiteSpace=wrap;html=1;" vertex="1" parent="1">
          <mxGeometry x="420" y="80" width="60" height="80" as="geometry" />
        </mxCell>
        <mxCell id="jdy4lV-E1GT7_JCYyYh7-3" value="" style="shape=or;whiteSpace=wrap;html=1;" vertex="1" parent="1">
          <mxGeometry x="420" y="240" width="60" height="80" as="geometry" />
        </mxCell>
        <mxCell id="jdy4lV-E1GT7_JCYyYh7-4" value="" style="shape=or;whiteSpace=wrap;html=1;" vertex="1" parent="1">
          <mxGeometry x="420" y="400" width="60" height="80" as="geometry" />
        </mxCell>
      </root>
    </mxGraphModel>
  </diagram>
</mxfile>
